<?xml version="1.0" encoding="utf-8"?>
<!-- Generator: Adobe Illustrator 19.0.0, SVG Export Plug-In . SVG Version: 6.00 Build 0)  -->
<!DOCTYPE svg PUBLIC "-//W3C//DTD SVG 1.1//EN" "http://www.w3.org/Graphics/SVG/1.1/DTD/svg11.dtd">
<svg version="1.1" id="Layer_1" xmlns="http://www.w3.org/2000/svg" xmlns:xlink="http://www.w3.org/1999/xlink" x="0px" y="0px"
	 viewBox="0 0 1000 1000" style="enable-background:new 0 0 1000 1000;" xml:space="preserve">
<style type="text/css">
	.st0{fill:#004055;}
	.st1{fill:none;}
</style>
<g id="XMLID_2_">
	<path id="XMLID_28_" class="st0" d="M-6240.5,5230.7c8.6,0,16.1,2.2,22.4,6.6c6.3,4.4,10.7,9.8,13.1,16.3
		c2.4,6.5,3.7,13.8,3.7,21.8h-56.3c0.4,6.9,2.5,11.7,6.5,14.6c4,2.9,8.2,4.3,12.6,4.3c5.8,0,11.6-3,17.5-8.9l18.8,6
		c-4.3,6.8-10,11.7-17,14.8h43.3c-4.8-3.1-7.2-8.7-7.2-16.6v-39.6h-9.6v-17.4h9.6v-11.9l24.1-17.3v29.2h13.9v17.4h-13.9v32.8
		c0,3,0.4,5,1.1,6c0.8,1,2.5,1.5,5.2,1.5c2.2,0,4.8-0.5,7.6-1.6v16.7c-0.6,0.3-1.2,0.5-1.8,0.7h34c-3.7-1.7-7.1-4-10.2-6.8
		c-7.7-7.1-11.5-16.7-11.5-29c0-12.3,3.8-22,11.5-29c7.7-7.1,17.1-10.6,28.2-10.6c6.2,0,11.9,1.1,17.1,3.3l-90-105.3l-90.1,105.4
		C-6252.8,5231.8-6247,5230.7-6240.5,5230.7z"/>
	<path id="XMLID_35_" class="st0" d="M-6095,5291.1c4.5,0,8.1-1.7,10.9-5.2c2.8-3.4,4.2-8.8,4.2-16.2c0-6.5-1.4-11.5-4.1-15.1
		c-2.7-3.6-6.4-5.4-11-5.4c-10,0-14.9,7.2-14.9,21.6c0,5.9,1.2,10.7,3.7,14.6C-6103.8,5289.2-6100,5291.1-6095,5291.1z"/>
	<path id="XMLID_36_" class="st0" d="M-6016.2,5306.1l-40.2-47c0.8,3.5,1.2,7.2,1.2,11.2c0,12.1-3.8,21.8-11.4,28.9
		c-3.1,2.9-6.5,5.2-10.3,7H-6016.2z"/>
	<path id="XMLID_37_" class="st0" d="M-6241.8,5246.7c-8.9,0-14,5.1-15.5,15.2h31.6c-0.6-4.2-2.2-7.8-5-10.8
		C-6233.3,5248.1-6237,5246.7-6241.8,5246.7z"/>
	<path id="XMLID_38_" class="st0" d="M-6270.3,5299.3c-7.5-7-11.2-16.3-11.2-27.7c0-4.1,0.5-8,1.5-11.7l-39.5,46.2h59.8
		C-6263.8,5304.4-6267.3,5302.1-6270.3,5299.3z"/>
</g>
<g id="XMLID_13_">
	<path id="XMLID_40_" class="st0" d="M-6443.6,5189.9c0.1,1.4,0.2,2.8,0.2,4.2c0,12.9-4,23.2-12.1,30.8c-2.9,2.7-6,4.9-9.4,6.7h52.6
		L-6443.6,5189.9z"/>
	<path id="XMLID_41_" class="st0" d="M-6485.9,5216.4c4.8,0,8.6-1.8,11.6-5.5c3-3.7,4.5-9.4,4.5-17.2c0-6.9-1.4-12.2-4.3-16.1
		c-2.9-3.9-6.8-5.8-11.7-5.8c-10.6,0-15.9,7.7-15.9,23c0,6.3,1.3,11.4,4,15.5C-6495.2,5214.3-6491.2,5216.4-6485.9,5216.4z"/>
	<path id="XMLID_42_" class="st0" d="M-6641,5151.9c9.2,0,17.2,2.3,23.9,7c6.7,4.7,11.4,10.5,14,17.4c2.6,6.9,3.9,14.7,3.9,23.2h-60
		c0.4,7.3,2.7,12.5,7,15.6c4.2,3.1,8.7,4.6,13.5,4.6c6.2,0,12.4-3.2,18.7-9.5l20,6.4c-4.3,6.7-9.8,11.7-16.5,15h43.4
		c-4.4-3.5-6.6-9.1-6.6-16.9v-42.2h-10.2v-18.6h10.2v-12.7l25.7-18.5v31.1h14.8v18.6h-14.8v34.9c0,3.2,0.4,5.3,1.2,6.4
		c0.8,1.1,2.7,1.6,5.5,1.6c2.4,0,5.1-0.6,8.1-1.7v17.8c0,0,0,0,0,0h32.8c-3.3-1.7-6.5-3.9-9.3-6.5c-8.2-7.5-12.3-17.8-12.3-30.9
		c0-13.1,4.1-23.4,12.3-30.9c8.2-7.5,18.2-11.3,30.1-11.3c5.7,0,10.9,0.9,15.7,2.5l-93.9-125.3l-94.4,126
		C-6653.2,5153-6647.3,5151.9-6641,5151.9z"/>
	<path id="XMLID_43_" class="st0" d="M-6642.3,5169c-9.4,0-14.9,5.4-16.5,16.2h33.7c-0.6-4.5-2.4-8.3-5.3-11.5
		C-6633.2,5170.6-6637.2,5169-6642.3,5169z"/>
	<path id="XMLID_44_" class="st0" d="M-6672.7,5225.1c-8-7.5-12-17.3-12-29.5c0-2,0.1-4,0.3-5.9l-31.4,41.9h52.6
		C-6666.7,5229.9-6669.9,5227.7-6672.7,5225.1z"/>
</g>
<g id="XMLID_1_">
	<path id="XMLID_29_" class="st0" d="M-6754.6,5517.6c-8.9,0-14,5.1-15.5,15.2h31.6c-0.6-4.2-2.2-7.8-5-10.8
		C-6746.1,5519.1-6749.8,5517.6-6754.6,5517.6z"/>
	<path id="XMLID_30_" class="st0" d="M-6607.8,5520.2c-10,0-14.9,7.2-14.9,21.6c0,5.9,1.2,10.7,3.7,14.6c2.5,3.8,6.2,5.7,11.2,5.7
		c4.5,0,8.1-1.7,10.9-5.2c2.8-3.4,4.2-8.8,4.2-16.2c0-6.5-1.4-11.5-4.1-15.1C-6599.5,5522-6603.2,5520.2-6607.8,5520.2z"/>
	<path id="XMLID_31_" class="st0" d="M-6662.7,5578.1h39.3c-4.6-1.8-8.8-4.4-12.6-7.8c-7.7-7.1-11.5-16.7-11.5-29
		c0-12.3,3.8-22,11.5-29c7.7-7.1,17.1-10.6,28.2-10.6c8.3,0,15.7,2,22,5.9l-54-93.5l-16.8,21.2l11.1,30.7l-33.1-9.9l-28.2,20
		l0.6-32.6l-24.4-15.7l-46.8,81.1c6.7-4.7,14.7-7.1,24-7.1c8.6,0,16.1,2.2,22.4,6.6c6.3,4.4,10.7,9.8,13.1,16.3
		c2.4,6.5,3.7,13.8,3.7,21.8h-56.3c0.4,6.9,2.5,11.7,6.5,14.6c4,2.9,8.2,4.3,12.6,4.3c5.8,0,11.6-3,17.5-8.9l18.8,6
		c-4.8,7.6-11.4,12.8-19.6,15.8h47.6c-6-2.9-9-8.7-9-17.6v-39.6h-9.6v-17.4h9.6v-11.9l24.1-17.3v29.2h13.9v17.4h-13.9v32.8
		c0,3,0.4,5,1.1,6c0.8,1,2.5,1.5,5.2,1.5c2.2,0,4.8-0.5,7.6-1.6v16.7C-6659.6,5577-6661.1,5577.6-6662.7,5578.1z"/>
	<path id="XMLID_32_" class="st0" d="M-6568.1,5538c0.1,1,0.1,2.1,0.1,3.2c0,12.1-3.8,21.8-11.4,28.9c-3.7,3.5-8,6.2-12.6,8h47
		L-6568.1,5538z"/>
	<path id="XMLID_33_" class="st0" d="M-6783.1,5570.3c-7.5-7-11.2-16.3-11.2-27.7c0-1.6,0.1-3.2,0.2-4.8l-23.3,40.3h47.4
		C-6775.1,5576.3-6779.5,5573.7-6783.1,5570.3z"/>
	<polygon id="XMLID_34_" class="st0" points="-6701.1,5414.8 -6690.5,5383.5 -6670.4,5409.7 -6642.6,5408.9 -6681.2,5342.1 
		-6727.8,5423 	"/>
</g>
<path id="XMLID_6_" d="M-6024.1,4559.8"/>
<line id="XMLID_7_" class="st1" x1="-6529.6" y1="4282.6" x2="-6415.2" y2="4281"/>
<line id="XMLID_10_" class="st1" x1="-6496.3" y1="4281" x2="-6494.6" y2="4281"/>
<line id="XMLID_11_" class="st1" x1="-6408" y1="4247.1" x2="-6551.9" y2="4295.4"/>
<line id="XMLID_12_" class="st1" x1="-6510.2" y1="4263.7" x2="-6523" y2="4244.3"/>
<g id="XMLID_20_">
	<path id="XMLID_68_" class="st0" d="M-5485.8,3970.1v38.7c0,3.5,0.4,5.9,1.3,7.1c0.9,1.2,2.9,1.8,6.1,1.8c1.3,0,2.7-0.2,4.2-0.5
		c-3.4-6.6-5.1-14.3-5.1-23.1c0-9.2,1.9-17.2,5.5-24H-5485.8z"/>
	<path id="XMLID_69_" class="st0" d="M-5550.9,3976.6c-2.9-4.1-6.6-6.9-11.2-8.5c-4.5-1.6-9.2-1-14.2,1.6
		c-9.2,4.9-11.8,13.1-7.6,24.5L-5550.9,3976.6z"/>
	<path id="XMLID_70_" class="st0" d="M-5561.8,4020c5.7,0.8,10.9-0.1,15.5-2.6c6-3.2,10.4-9.6,13.3-19l18.8-3.4v-24.9h-8
		c1.5,2.2,2.9,4.5,4.2,7l-58.6,31.4C-5572.5,4015.4-5567.6,4019.2-5561.8,4020z"/>
	<path id="XMLID_71_" class="st0" d="M-5432.4,3969.3c-11.7,0-17.6,8.5-17.6,25.4c0,6.9,1.5,12.7,4.4,17.2c2.9,4.5,7.3,6.8,13.2,6.8
		c5.3,0,9.6-2,12.9-6.1c3.3-4.1,4.9-10.4,4.9-19.1c0-7.6-1.6-13.6-4.8-17.8C-5422.6,3971.4-5426.9,3969.3-5432.4,3969.3z"/>
	<path id="XMLID_72_" class="st0" d="M-5556.8,3946.8c9,1,16.6,4.3,22.7,9.7c3,2.6,5.8,5.7,8.4,9v-15.9h11.3v-14l28.5-20.5v34.5
		h16.4v14.3c1.2-1.4,2.4-2.8,3.8-4c9.1-8.3,20.2-12.5,33.3-12.5c7.7,0,14.7,1.4,21,4.2l-48.1-64.2l-26.1,22.3l-0.4,0.6l-26.2-18.7
		l-38.8,15.8l-34.3,45.7c0.4-0.3,0.9-0.5,1.3-0.8C-5574.8,3947.6-5565.8,3945.7-5556.8,3946.8z"/>
	<polygon id="XMLID_73_" class="st0" points="-5511.8,3886.7 -5511.7,3886.5 -5511.5,3886.6 -5511.4,3886.5 -5511.3,3886.8 
		-5486.4,3904.6 -5462.1,3883.9 -5497.6,3836.4 -5545.7,3900.6 	"/>
	<path id="XMLID_74_" class="st0" d="M-5385.9,3985.5c0.4,2.7,0.6,5.6,0.6,8.6c0,14.3-4.5,25.7-13.4,34.1
		c-5.5,5.1-11.8,8.7-18.9,10.7h71.7L-5385.9,3985.5z"/>
	<path id="XMLID_75_" class="st0" d="M-5514.3,4016.8v-6.5c-4.5,9.6-12.4,17.5-24,23.7c-3.7,2-7.4,3.6-10.9,4.8h49
		C-5509.6,4036.2-5514.3,4028.8-5514.3,4016.8z"/>
	<path id="XMLID_76_" class="st0" d="M-5603.7,4017.8c-5.8-10.9-7.5-21.9-5.2-33l-40.4,54h68
		C-5590.8,4035.1-5598.2,4028.1-5603.7,4017.8z"/>
	<path id="XMLID_77_" class="st0" d="M-5465.6,4028.3c-1.4-1.3-2.6-2.6-3.8-4v11.3c-3.6,1.5-7.1,2.6-10.6,3.3h33.2
		C-5453.8,4036.9-5460.1,4033.4-5465.6,4028.3z"/>
</g>
<polygon id="XMLID_67_" class="st0" points="-4134,5144.9 -3982.3,4942.5 -3830.6,5144.9 "/>
<path id="XMLID_52_" d="M-4027.1,5109.2l22.4-4.1c-1.3,16.8-10.4,29.8-27.4,38.9c-13.6,7.3-26.1,9.4-37.5,6.3
	c-11.4-3.1-20.3-10.4-26.5-22.1c-6.3-11.9-7.7-23.9-4.1-36c3.6-12.1,11.5-21.5,23.6-28c8.8-4.7,17.6-6.6,26.4-5.5
	c8.8,1,16.2,4.2,22.2,9.5c6,5.3,11.2,12,15.6,20.2l-57.3,30.7c4.1,6.8,9,10.6,14.6,11.3c5.6,0.7,10.7-0.1,15.2-2.5
	C-4034.1,5124.6-4029.8,5118.4-4027.1,5109.2z M-4044.5,5087.9c-2.9-4-6.5-6.7-10.9-8.3c-4.4-1.5-9-1-13.8,1.6
	c-9,4.8-11.5,12.8-7.4,23.9L-4044.5,5087.9z"/>
<path id="XMLID_50_" d="M-4009.6,5081.5v-20.1h11.1v-13.7l27.9-20v33.7h16v20.1h-16v37.8c0,3.4,0.4,5.7,1.3,6.9
	c0.9,1.2,2.9,1.8,6,1.8c2.6,0,5.5-0.6,8.7-1.8v19.3c-7.2,2.9-14.2,4.4-21,4.4c-15.3,0-22.9-7.6-22.9-22.7v-45.7H-4009.6z"/>
<path id="XMLID_47_" d="M-3906.8,5150.6c-12.9,0-23.7-4.1-32.6-12.2c-8.9-8.1-13.3-19.3-13.3-33.5c0-14.2,4.4-25.3,13.3-33.5
	c8.9-8.1,19.7-12.2,32.6-12.2c12.9,0,23.8,4.1,32.6,12.2c8.8,8.1,13.3,19.3,13.3,33.5c0,14-4.4,25.1-13.1,33.3
	C-3882.8,5146.5-3893.7,5150.6-3906.8,5150.6z M-3906.9,5129c5.2,0,9.4-2,12.6-5.9c3.2-4,4.8-10.2,4.8-18.7c0-7.4-1.6-13.3-4.7-17.4
	c-3.1-4.2-7.4-6.3-12.7-6.3c-11.5,0-17.2,8.3-17.2,24.9c0,6.8,1.4,12.4,4.3,16.8C-3917,5126.8-3912.6,5129-3906.9,5129z"/>
<g id="XMLID_21_">
	
		<rect id="XMLID_45_" x="-4066.6" y="4999.7" transform="matrix(-0.9301 0.3674 -0.3674 -0.9301 -5930.9258 11132.6396)" width="83.3" height="4.4"/>
	
		<rect id="XMLID_39_" x="-3992" y="4994.3" transform="matrix(-0.8068 -0.5909 0.5909 -0.8068 -10133.5059 6679.0767)" width="34.8" height="4.4"/>
	
		<rect id="XMLID_22_" x="-3972.9" y="4977.8" transform="matrix(-0.7686 0.6398 -0.6398 -0.7686 -3766.6504 11322.5771)" width="83.3" height="4.4"/>
</g>
<g id="XMLID_81_">
	<path id="XMLID_130_" class="st0" d="M627.2,730.5c-7.9-4.5-15.2-10-22.1-16.5c-21.5-20.5-32.3-48.7-32.3-84.5
		c0-35.8,10.8-63.9,32.3-84.5c21.5-20.5,47.9-30.8,79.2-30.8c11.3,0,21.9,1.3,31.9,4L593.8,348.4l-42.3,36.5l-1.1,1.5l-63.1-48
		l-103,42.3L283.2,520.9c17.4-7.5,34.9-10.2,52.3-8.1c21.4,2.6,39.4,10.5,54,23.9c14.7,13.3,27.3,30.3,37.9,50.9L288.2,665
		c10,17.1,21.8,26.7,35.5,28.5c13.6,1.9,25.9-0.2,36.9-6.3c14.3-7.9,24.8-23.6,31.5-46.9l54.3-10.3c-3.1,42.5-25.3,75.2-66.7,98.2
		c-1.5,0.8-2.9,1.6-4.4,2.3h102.2c-10.6-9.5-16-24.5-16-44.9V570.3h-26.9v-50.7h26.9v-34.6l67.7-50.5v85.1h39v50.7h-39v95.5
		c0,8.7,1.1,14.5,3.2,17.4c2.1,3,7,4.4,14.6,4.4c6.3,0,13.4-1.5,21.3-4.5v47.3H627.2z"/>
	<path id="XMLID_131_" class="st0" d="M684.1,568.3c-27.9,0-41.8,20.9-41.8,62.8c0,17.1,3.5,31.3,10.4,42.4
		c6.9,11.1,17.4,16.7,31.4,16.7c12.6,0,22.7-5,30.6-15c7.8-10,11.7-25.7,11.7-47.1c0-18.8-3.8-33.5-11.4-44
		C707.4,573.6,697.1,568.3,684.1,568.3z"/>
	<path id="XMLID_132_" class="st0" d="M349.6,586.4c-7-10.1-15.8-17-26.5-20.9c-10.7-3.9-21.9-2.5-33.6,4
		c-21.9,12.2-27.9,32.3-18.1,60.4L349.6,586.4z"/>
	<path id="XMLID_133_" class="st0" d="M795.8,628.5c0,0.3,0,0.7,0,1c0,35.3-10.6,63.4-31.9,84.2c-6.9,6.7-14.3,12.3-22.3,16.9h127.7
		L795.8,628.5z"/>
	<path id="XMLID_134_" class="st0" d="M224.1,688.2c-11.1-21.6-15.9-43.3-14.5-65.3L132,730.5h127.7
		C245.4,720.6,233.6,706.5,224.1,688.2z"/>
	<polygon id="XMLID_135_" class="st0" points="488.2,326.1 488.6,325.6 488.9,325.8 489.4,325.6 489.6,326.3 549.6,372 587.3,339.4 
		500.7,219.4 396.7,363.6 	"/>
</g>
<g id="XMLID_79_">
	<path id="XMLID_113_" class="st0" d="M-5965.3,4329.6c-11.7,0-17.6,8.5-17.6,25.4c0,6.9,1.5,12.7,4.4,17.2
		c2.9,4.5,7.3,6.8,13.2,6.8c5.3,0,9.6-2,12.9-6.1c3.3-4.1,4.9-10.4,4.9-19.1c0-7.6-1.6-13.6-4.8-17.8
		C-5955.5,4331.8-5959.9,4329.6-5965.3,4329.6z"/>
	<path id="XMLID_124_" class="st0" d="M-6106.1,4337c-2.9-4.1-6.6-6.9-11.2-8.5c-4.5-1.6-9.2-1-14.2,1.6
		c-9.2,4.9-11.8,13.1-7.6,24.5L-6106.1,4337z"/>
	<path id="XMLID_125_" class="st0" d="M-6015.7,4396.5h28.7c-4.2-2-8-4.6-11.6-7.8c-9.1-8.3-13.6-19.7-13.6-34.2
		c0-14.5,4.5-25.9,13.6-34.2c9.1-8.3,20.2-12.5,33.3-12.5c3.4,0,6.7,0.3,9.8,0.8l-47.5-63.4l-17.4,14.5l-0.4,0.6l-25.9-19
		l-42.4,16.7l-37.5,50.1c4.9-1.2,9.7-1.5,14.6-0.9c9,1,16.6,4.3,22.7,9.7c6.2,5.4,11.5,12.3,16,20.6l-58.6,31.4
		c4.2,6.9,9.2,10.8,14.9,11.6c5.7,0.8,10.9-0.1,15.5-2.6c6-3.2,10.4-9.6,13.3-19l22.9-4.2c-1.3,17.2-10.7,30.5-28.1,39.8
		c-1.4,0.8-2.8,1.5-4.2,2.1h46.9c-5.5-3.7-8.2-10.2-8.2-19.3v-46.7h-11.3v-20.5h11.3v-14l28.5-20.5v34.5h16.4v20.5h-16.4v38.7
		c0,3.5,0.4,5.9,1.3,7.1c0.9,1.2,2.9,1.8,6.1,1.8c2.6,0,5.6-0.6,8.9-1.8v19.7C-6014.7,4396.1-6015.2,4396.3-6015.7,4396.5z"/>
	<path id="XMLID_126_" class="st0" d="M-5918.4,4357.9c-0.7,12.7-5.1,22.9-13.3,30.6c-3.5,3.3-7.4,6-11.6,8h53.9L-5918.4,4357.9z"/>
	<polygon id="XMLID_127_" class="st0" points="-6046.4,4236.3 -6046.2,4236.1 -6046.1,4236.2 -6045.9,4236.1 -6045.8,4236.4 
		-6021.1,4254.5 -6005.6,4241.6 -6041.2,4194 -6084,4251.2 	"/>
	<path id="XMLID_128_" class="st0" d="M-6158.9,4378.2c-3.4-6.3-5.4-12.7-6-19.1l-28,37.4h50.8
		C-6148.9,4392.4-6154.5,4386.4-6158.9,4378.2z"/>
</g>
<g id="XMLID_80_">
	<path id="XMLID_114_" class="st0" d="M-5754.5,4676.9v38.7c0,3.5,0.4,5.9,1.3,7.1c0.9,1.2,2.9,1.8,6.1,1.8c1.8,0,3.7-0.3,5.8-0.8
		c-3.3-6.5-4.9-14.1-4.9-22.7c0-9.2,1.9-17.2,5.5-24H-5754.5z"/>
	<path id="XMLID_115_" class="st0" d="M-5829.9,4726.7c5.7,0.8,10.9-0.1,15.5-2.6c6-3.2,10.4-9.6,13.3-19l18.2-3.3v-25h-7.5
		c1.5,2.2,2.9,4.5,4.2,7l-58.6,31.4C-5840.7,4722.1-5835.7,4726-5829.9,4726.7z"/>
	<path id="XMLID_116_" class="st0" d="M-5699.3,4676c-11.7,0-17.6,8.5-17.6,25.4c0,6.9,1.5,12.7,4.4,17.2c2.9,4.5,7.3,6.8,13.2,6.8
		c5.3,0,9.6-2,12.9-6.1c3.3-4.1,4.9-10.4,4.9-19.1c0-7.6-1.6-13.6-4.8-17.8C-5689.5,4678.2-5693.8,4676-5699.3,4676z"/>
	<path id="XMLID_117_" class="st0" d="M-5819,4683.4c-2.9-4.1-6.6-6.9-11.2-8.5c-4.5-1.6-9.2-1-14.2,1.6
		c-9.2,4.9-11.8,13.1-7.6,24.5L-5819,4683.4z"/>
	<path id="XMLID_118_" class="st0" d="M-5851.9,4659.2c9-4.8,18-6.7,27-5.7c9,1,16.6,4.3,22.7,9.7c2.8,2.5,5.4,5.3,7.9,8.3v-15.2
		h11.3v-14l28.5-20.5v34.5h16.4v16.6c1.6-2.3,3.5-4.4,5.6-6.3c9.1-8.3,20.2-12.5,33.3-12.5c8.6,0,16.4,1.8,23.2,5.3l-50.9-67.9
		l-17.4,14.5l-0.4,0.6l-25.9-19l-42.4,16.7l-42.8,57.2C-5854.6,4660.7-5853.3,4659.9-5851.9,4659.2z"/>
	<path id="XMLID_119_" class="st0" d="M-5653.3,4689.8c0.7,3.5,1,7.1,1,11.1c0,14.3-4.5,25.7-13.4,34.1c-3.5,3.3-7.4,6-11.6,8h63.9
		L-5653.3,4689.8z"/>
	<polygon id="XMLID_120_" class="st0" points="-5770.3,4582.7 -5770.1,4582.5 -5770,4582.6 -5769.8,4582.5 -5769.7,4582.8 
		-5745,4600.9 -5729.5,4588 -5765.2,4540.4 -5808,4597.6 	"/>
	<path id="XMLID_121_" class="st0" d="M-5871.8,4724.6c-6.3-11.8-7.8-23.7-4.5-35.8l-40.5,54.1h61.8
		C-5861.9,4738.8-5867.5,4732.7-5871.8,4724.6z"/>
	<path id="XMLID_122_" class="st0" d="M-5732.5,4735c-2.1-1.9-3.9-4-5.6-6.3v13.5c-0.5,0.2-1.1,0.4-1.6,0.6h18.7
		C-5725.1,4740.9-5729,4738.3-5732.5,4735z"/>
	<path id="XMLID_123_" class="st0" d="M-5783,4723.5v-5.3c-4.6,9.1-12.4,16.7-23.4,22.6c-1.4,0.8-2.8,1.5-4.2,2.1h35.9
		C-5780.2,4739.1-5783,4732.7-5783,4723.5z"/>
</g>
<g id="XMLID_4_">
	<path id="XMLID_105_" class="st0" d="M-6151.6,4685.4c-2.9-4.1-6.6-6.9-11.2-8.5c-4.5-1.6-9.2-1-14.2,1.6
		c-9.2,4.9-11.8,13.1-7.6,24.5L-6151.6,4685.4z"/>
	<path id="XMLID_106_" class="st0" d="M-6016.9,4678c-11.7,0-17.6,8.5-17.6,25.4c0,6.9,1.5,12.7,4.4,17.2c2.9,4.5,7.3,6.8,13.2,6.8
		c5.3,0,9.6-2,12.9-6.1c3.3-4.1,4.9-10.4,4.9-19.1c0-7.6-1.6-13.6-4.8-17.8C-6007.1,4680.2-6011.4,4678-6016.9,4678z"/>
	<path id="XMLID_107_" class="st0" d="M-6042.3,4742.9c-2.8-1.6-5.4-3.6-7.8-5.8c-9.1-8.3-13.6-19.7-13.6-34.2
		c0-14.5,4.5-25.9,13.6-34.2c9.1-8.3,20.2-12.5,33.3-12.5c4.4,0,8.7,0.5,12.6,1.4l-55-73.4l-7.5,8.5l-0.3,0.7l-28.6-14.7l-44.5,26.2
		l-41,54.7c7.9-3.6,15.7-4.9,23.6-4c9,1,16.6,4.3,22.7,9.7c6.2,5.4,11.5,12.3,16,20.6l-58.6,31.4c4.2,6.9,9.2,10.8,14.9,11.6
		c5.7,0.8,10.9-0.1,15.5-2.6c6-3.2,10.4-9.6,13.3-19l22.9-4.2c-1.3,17.2-10.7,30.5-28.1,39.8c-0.1,0-0.1,0.1-0.2,0.1h37.4
		c-3.8-3.9-5.8-9.7-5.8-17.3v-46.7h-11.3v-20.5h11.3v-14l28.5-20.5v34.5h16.4v20.5h-16.4v38.7c0,3.5,0.4,5.9,1.3,7.1
		c0.9,1.2,2.9,1.8,6.1,1.8c2.6,0,5.6-0.6,8.9-1.8v18.3H-6042.3z"/>
	<path id="XMLID_108_" class="st0" d="M-6204.4,4726.6c-5-9.3-6.9-18.6-6-28l-33.2,44.3h52.9
		C-6196.2,4738.9-6200.7,4733.5-6204.4,4726.6z"/>
	<polygon id="XMLID_109_" class="st0" points="-6096,4573.7 -6095.9,4573.4 -6095.8,4573.5 -6095.6,4573.4 -6095.5,4573.7 
		-6068.3,4587.7 -6061.9,4580.5 -6091.9,4540.4 -6133.2,4595.6 	"/>
	<path id="XMLID_110_" class="st0" d="M-5969.9,4703.3c-0.1,14.1-4.6,25.3-13.4,33.6c-2.5,2.3-5.1,4.3-7.9,6h51L-5969.9,4703.3z"/>
</g>
<g id="XMLID_3_">
	<path id="XMLID_93_" class="st0" d="M-6349.8,4678c-11.7,0-17.6,8.5-17.6,25.4c0,6.9,1.5,12.7,4.4,17.2c2.9,4.5,7.3,6.8,13.2,6.8
		c5.3,0,9.6-2,12.9-6.1c3.3-4.1,4.9-10.4,4.9-19.1c0-7.6-1.6-13.6-4.8-17.8C-6340,4680.2-6344.3,4678-6349.8,4678z"/>
	<path id="XMLID_94_" class="st0" d="M-6484.5,4685.4c-2.9-4.1-6.6-6.9-11.2-8.5c-4.5-1.6-9.2-1-14.2,1.6
		c-9.2,4.9-11.8,13.1-7.6,24.5L-6484.5,4685.4z"/>
	<path id="XMLID_95_" class="st0" d="M-6375.2,4742.9c-2.8-1.6-5.4-3.6-7.8-5.8c-9.1-8.3-13.6-19.7-13.6-34.2
		c0-14.5,4.5-25.9,13.6-34.2c9.1-8.3,20.2-12.5,33.3-12.5c4.4,0,8.7,0.5,12.6,1.4l-53.8-71.8l-11.7,10l-0.4,0.6l-26.2-18.7
		l-33.9,13.8l-51,68c7.9-3.6,15.7-4.9,23.6-4c9,1,16.6,4.3,22.7,9.7c6.2,5.4,11.5,12.3,16,20.6l-58.6,31.4
		c4.2,6.9,9.2,10.8,14.9,11.6c5.7,0.8,10.9-0.1,15.5-2.6c6-3.2,10.4-9.6,13.3-19l22.9-4.2c-1.3,17.2-10.7,30.5-28.1,39.8
		c-0.1,0-0.1,0.1-0.2,0.1h37.4c-3.8-3.9-5.8-9.7-5.8-17.3v-46.7h-11.3v-20.5h11.3v-14l28.5-20.5v34.5h16.4v20.5h-16.4v38.7
		c0,3.5,0.4,5.9,1.3,7.1c0.9,1.2,2.9,1.8,6.1,1.8c2.6,0,5.6-0.6,8.9-1.8v18.3H-6375.2z"/>
	<path id="XMLID_96_" class="st0" d="M-6302.7,4703.3c-0.1,14.1-4.6,25.3-13.4,33.6c-2.5,2.3-5.1,4.3-7.9,6h51L-6302.7,4703.3z"/>
	<path id="XMLID_97_" class="st0" d="M-6537.3,4726.6c-5-9.3-6.9-18.6-6-28l-33.2,44.3h52.9
		C-6529,4738.9-6533.6,4733.5-6537.3,4726.6z"/>
	<polygon id="XMLID_98_" class="st0" points="-6428.9,4572.7 -6428.7,4572.5 -6428.6,4572.6 -6428.4,4572.6 -6428.3,4572.8 
		-6403.4,4590.6 -6393.5,4582.2 -6424.8,4540.4 -6457.9,4584.6 	"/>
</g>
<g id="XMLID_91_">
	<path id="XMLID_92_" class="st0" d="M-5239.7,3981.3c-2.9-4.1-6.6-6.9-11.2-8.5c-4.5-1.6-9.2-1-14.2,1.6
		c-9.2,4.9-11.8,13.1-7.6,24.5L-5239.7,3981.3z"/>
	<path id="XMLID_100_" class="st0" d="M-5126.5,4038.9c-2.8-1.6-5.4-3.6-7.8-5.8c-9.1-8.3-13.6-19.7-13.6-34.2
		c0-14.5,4.5-25.9,13.6-34.2c9.1-8.3,20.2-12.5,33.3-12.5c4.1,0,8,0.4,11.7,1.2l-48-64.1l-24.1,20.5l-0.4,0.6l-26.2-18.7l-43.7,17.8
		l-33.2,44.3c6.4-2.2,12.8-3,19.2-2.2c9,1,16.6,4.3,22.7,9.7c6.2,5.4,11.5,12.3,16,20.6l-58.6,31.4c4.2,6.9,9.2,10.8,14.9,11.6
		c5.7,0.8,10.9-0.1,15.5-2.6c6-3.2,10.4-9.6,13.3-19l22.9-4.2c-1.3,17.2-10.7,30.5-28.1,39.8c-0.1,0-0.1,0.1-0.2,0.1h39.9
		c-3.8-3.9-5.8-9.7-5.8-17.3v-46.7h-11.3v-20.5h11.3v-14l28.5-20.5v34.5h16.4v20.5h-16.4v38.7c0,3.5,0.4,5.9,1.3,7.1
		c0.9,1.2,2.9,1.8,6.1,1.8c2.6,0,5.6-0.6,8.9-1.8v18.3H-5126.5z"/>
	<path id="XMLID_101_" class="st0" d="M-5101.1,3974c-11.7,0-17.6,8.5-17.6,25.4c0,6.9,1.5,12.7,4.4,17.2c2.9,4.5,7.3,6.8,13.2,6.8
		c5.3,0,9.6-2,12.9-6.1c3.3-4.1,4.9-10.4,4.9-19.1c0-7.6-1.6-13.6-4.8-17.8C-5091.3,3976.1-5095.7,3974-5101.1,3974z"/>
	<polygon id="XMLID_102_" class="st0" points="-5187.7,3886.7 -5187.5,3886.5 -5187.4,3886.6 -5187.2,3886.5 -5187.1,3886.8 
		-5162.2,3904.6 -5140,3885.6 -5176.9,3836.4 -5226.5,3902.6 	"/>
	<path id="XMLID_103_" class="st0" d="M-5054.1,4000.2c-0.3,13.6-4.7,24.5-13.4,32.6c-2.5,2.3-5.1,4.3-7.9,6h50.2L-5054.1,4000.2z"
		/>
	<path id="XMLID_104_" class="st0" d="M-5292.5,4022.6c-4.2-7.8-6.2-15.7-6.2-23.7l-29.9,39.9h49.9
		C-5284.2,4034.9-5288.8,4029.5-5292.5,4022.6z"/>
</g>
<polygon id="XMLID_78_" class="st0" points="-4915.5,5058.5 -4763.8,4856.1 -4612.1,5058.5 "/>
<g id="XMLID_16_">
	<path id="XMLID_26_" d="M-4808.7,5022.8l22.9-4.2c-1.3,17.2-10.7,30.5-28.1,39.8c-13.9,7.4-26.7,9.6-38.3,6.4
		c-11.7-3.1-20.7-10.7-27.1-22.6c-6.5-12.1-7.9-24.4-4.2-36.8c3.7-12.4,11.7-21.9,24.1-28.6c9-4.8,18-6.7,27-5.7
		c9,1,16.6,4.3,22.7,9.7c6.2,5.4,11.5,12.3,16,20.6l-58.6,31.4c4.2,6.9,9.2,10.8,14.9,11.6c5.7,0.8,10.9-0.1,15.5-2.6
		C-4815.9,5038.6-4811.5,5032.3-4808.7,5022.8z M-4826.5,5001c-2.9-4.1-6.6-6.9-11.2-8.5c-4.5-1.6-9.2-1-14.2,1.6
		c-9.2,4.9-11.8,13.1-7.6,24.5L-4826.5,5001z"/>
	<path id="XMLID_24_" d="M-4791.3,4994.5v-20.5h11.3v-14l28.5-20.5v34.5h16.4v20.5h-16.4v38.7c0,3.5,0.4,5.9,1.3,7.1
		c0.9,1.2,2.9,1.8,6.1,1.8c2.6,0,5.6-0.6,8.9-1.8v19.7c-7.3,3-14.5,4.5-21.5,4.5c-15.6,0-23.4-7.7-23.4-23.3v-46.7H-4791.3z"/>
	<path id="XMLID_17_" d="M-4688.9,5065.2c-13.2,0-24.3-4.2-33.3-12.5c-9.1-8.3-13.6-19.7-13.6-34.2c0-14.5,4.5-25.9,13.6-34.2
		c9.1-8.3,20.2-12.5,33.3-12.5c13.2,0,24.3,4.2,33.4,12.5c9,8.3,13.6,19.7,13.6,34.2c0,14.3-4.5,25.7-13.4,34.1
		C-4664.3,5061-4675.5,5065.2-4688.9,5065.2z M-4689,5043.1c5.3,0,9.6-2,12.9-6.1c3.3-4.1,4.9-10.4,4.9-19.1
		c0-7.6-1.6-13.6-4.8-17.8c-3.2-4.3-7.5-6.4-13-6.4c-11.7,0-17.6,8.5-17.6,25.4c0,6.9,1.5,12.7,4.4,17.2
		C-4699.3,5040.8-4694.9,5043.1-4689,5043.1z"/>
</g>
<g id="XMLID_5_">
	
		<rect id="XMLID_14_" x="-4853.5" y="4921.8" transform="matrix(-0.9257 0.3782 -0.3782 -0.9257 -7404.0586 11302.0576)" width="83.3" height="4.4"/>
	
		<rect id="XMLID_9_" x="-4778.9" y="4915.9" transform="matrix(-0.8136 -0.5814 0.5814 -0.8136 -11495.0498 6150.9414)" width="34.8" height="4.4"/>
	
		<rect id="XMLID_8_" x="-4760.1" y="4898.8" transform="matrix(-0.7611 0.6487 -0.6487 -0.7611 -5130.1074 11691.7529)" width="83.3" height="4.4"/>
</g>
<g id="XMLID_15_">
	<path id="XMLID_53_" class="st0" d="M-1275.7,4425.9c-34.9,0-52.3,25.2-52.3,75.6c0,20.6,4.3,37.7,13,51.1
		c8.7,13.4,21.8,20.1,39.3,20.1c15.7,0,28.5-6,38.2-18.1c9.8-12.1,14.7-31,14.7-56.7c0-22.6-4.8-40.3-14.3-53
		C-1246.6,4432.3-1259.4,4425.9-1275.7,4425.9z"/>
	<path id="XMLID_54_" class="st0" d="M-1790.3,4416.9c-31.1,0-49.1,17.8-54.3,53.4h111c-2-14.8-7.8-27.4-17.4-37.8
		C-1760.6,4422.1-1773.7,4416.9-1790.3,4416.9z"/>
	<path id="XMLID_55_" class="st0" d="M-1451.6,4622.9h107.9c-11-5.6-21.3-12.8-30.7-21.5c-26.9-24.7-40.4-58.7-40.4-101.8
		c0-43.1,13.5-77,40.4-101.8c26.9-24.7,60-37.1,99.1-37.1c18.6,0,35.8,2.8,51.6,8.4l-209.8-280l-51.8,52.9l-1,1.7l-72.9-42.7
		l-133.6,69.3l-150.5,200.9c17.3-6.9,36.5-10.4,57.5-10.4c30.3,0,56.5,7.7,78.6,23c22.1,15.3,37.4,34.4,46,57.2
		c8.6,22.8,12.9,48.3,12.9,76.4H-1846c1.3,24.1,8.9,41.2,22.9,51.2c14,10,28.7,15.1,44.3,15.1c20.3,0,40.7-10.4,61.4-31.2l65.8,21.1
		c-14.1,22.1-32.2,38.5-54.4,49.3h142.8c-14.5-11.4-21.8-29.9-21.8-55.7v-138.8h-33.7v-61.1h33.7v-41.6l84.7-60.8v102.4h48.8v61.1
		h-48.8v115c0,10.4,1.3,17.4,4,21c2.6,3.6,8.7,5.3,18.2,5.3c7.9,0,16.7-1.8,26.6-5.5L-1451.6,4622.9
		C-1451.6,4622.9-1451.6,4622.9-1451.6,4622.9z"/>
	<path id="XMLID_56_" class="st0" d="M-1890.5,4601.5c-26.2-24.7-39.3-57.1-39.3-97.2c0-6.6,0.4-13.1,1.1-19.3l-103.4,137.9h173
		C-1870.8,4617.3-1881.3,4610.2-1890.5,4601.5z"/>
	<path id="XMLID_57_" class="st0" d="M-1136.5,4485.7c0.3,4.5,0.5,9.2,0.5,13.9c0,42.5-13.3,76.3-39.9,101.3
		c-9.5,8.9-19.8,16.2-30.9,21.9h173L-1136.5,4485.7z"/>
	<polygon id="XMLID_58_" class="st0" points="-1559.8,4088.1 -1559.4,4087.5 -1559,4087.7 -1558.6,4087.5 -1558.3,4088.2 
		-1488.8,4128.9 -1440.7,4079.7 -1532.9,3956.6 -1676.9,4148.8 	"/>
</g>
<g id="XMLID_18_">
	<path id="XMLID_59_" class="st0" d="M-6114,5520.6c-10.6,0-15.9,7.7-15.9,23c0,6.3,1.3,11.4,4,15.5c2.6,4.1,6.6,6.1,12,6.1
		c4.8,0,8.6-1.8,11.6-5.5c3-3.7,4.5-9.4,4.5-17.2c0-6.9-1.4-12.2-4.3-16.1C-6105.1,5522.5-6109,5520.6-6114,5520.6z"/>
	<path id="XMLID_60_" class="st0" d="M-6270.4,5517.8c-9.4,0-14.9,5.4-16.5,16.2h33.7c-0.6-4.5-2.4-8.3-5.3-11.5
		C-6261.3,5519.4-6265.3,5517.8-6270.4,5517.8z"/>
	<path id="XMLID_61_" class="st0" d="M-6167.4,5580.4h32.8c-3.3-1.7-6.5-3.9-9.3-6.5c-8.2-7.5-12.3-17.8-12.3-30.9
		c0-13.1,4.1-23.4,12.3-30.9c8.2-7.5,18.2-11.3,30.1-11.3c5.7,0,10.9,0.9,15.7,2.5l-63.7-85l-15.9,16.4l0,0l-1.2,1.5l-21.7-17
		l-36.8,19.1l-49.1,65.5c5.3-2.1,11.1-3.2,17.5-3.2c9.2,0,17.2,2.3,23.9,7c6.7,4.7,11.4,10.5,14,17.4c2.6,6.9,3.9,14.7,3.9,23.2h-60
		c0.4,7.3,2.7,12.5,7,15.6c4.2,3.1,8.7,4.6,13.4,4.6c6.2,0,12.4-3.2,18.7-9.5l20,6.4c-4.3,6.7-9.8,11.7-16.5,15h43.4
		c-4.4-3.5-6.6-9.1-6.6-16.9v-42.2h-10.2v-18.6h10.2v-12.7l25.7-18.5v31.1h14.8v18.6h-14.8v34.9c0,3.2,0.4,5.3,1.2,6.4
		c0.8,1.1,2.7,1.6,5.5,1.6c2.4,0,5.1-0.6,8.1-1.7L-6167.4,5580.4C-6167.4,5580.4-6167.4,5580.4-6167.4,5580.4z"/>
	<polygon id="XMLID_62_" class="st0" points="-6200.5,5417.1 -6200.4,5417 -6200.4,5417 -6200.3,5417 -6200.3,5417.1 
		-6179.3,5433.6 -6163,5416.8 -6192.1,5378 -6234.7,5434.8 	"/>
	<path id="XMLID_63_" class="st0" d="M-6071.6,5538.7c0.1,1.4,0.2,2.8,0.2,4.2c0,12.9-4,23.2-12.1,30.8c-2.9,2.7-6,4.9-9.4,6.7h52.6
		L-6071.6,5538.7z"/>
	<path id="XMLID_64_" class="st0" d="M-6300.8,5573.9c-8-7.5-12-17.3-12-29.5c0-2,0.1-4,0.3-5.9l-31.4,41.9h52.6
		C-6294.8,5578.7-6298,5576.6-6300.8,5573.9z"/>
</g>
</svg>
